<svg xmlns="http://www.w3.org/2000/svg" xmlns:xlink="http://www.w3.org/1999/xlink" width="860" height="601.04"><rect width="860" height="601.04" rx="5" ry="5" class="a"/><svg y="0%" x="0%"><circle cx="20" cy="20" r="6" fill="#ff5f58"/><circle cx="40" cy="20" r="6" fill="#ffbd2e"/><circle cx="60" cy="20" r="6" fill="#18c132"/></svg><svg height="521.04" viewBox="0 0 80 52.104" width="800" x="25" xmlns="http://www.w3.org/2000/svg" xmlns:xlink="http://www.w3.org/1999/xlink" y="60"><style>@keyframes l{0%{transform:translateX(0)}.1%{transform:translateX(-80px)}5.8%{transform:translateX(-240px)}6.4%{transform:translateX(-320px)}7%{transform:translateX(-400px)}7.6%{transform:translateX(-480px)}8.2%{transform:translateX(-560px)}8.8%{transform:translateX(-640px)}9.3%{transform:translateX(-720px)}9.9%{transform:translateX(-800px)}10.5%{transform:translateX(-880px)}11.1%{transform:translateX(-960px)}11.7%{transform:translateX(-1040px)}12.3%{transform:translateX(-1120px)}12.9%{transform:translateX(-1200px)}13.5%{transform:translateX(-1280px)}14%{transform:translateX(-1360px)}14.6%{transform:translateX(-1440px)}15.2%{transform:translateX(-1520px)}15.8%{transform:translateX(-1600px)}16.4%{transform:translateX(-1680px)}17%{transform:translateX(-1760px)}17.6%{transform:translateX(-1840px)}18.1%{transform:translateX(-1920px)}18.7%{transform:translateX(-2000px)}19.3%{transform:translateX(-2080px)}19.9%{transform:translateX(-2160px)}20.5%{transform:translateX(-2240px)}21.1%{transform:translateX(-2320px)}21.7%{transform:translateX(-2400px)}22.2%{transform:translateX(-2480px)}22.8%{transform:translateX(-2560px)}23.4%{transform:translateX(-2640px)}24%{transform:translateX(-2720px)}24.6%{transform:translateX(-2800px)}25.2%{transform:translateX(-2880px)}25.8%{transform:translateX(-2960px)}29.6%{transform:translateX(-3120px)}69.7%{transform:translateX(-3200px)}70.2%{transform:translateX(-3280px)}70.8%{transform:translateX(-3360px)}71.4%{transform:translateX(-3440px)}72%{transform:translateX(-3520px)}72.6%{transform:translateX(-3600px)}73.2%{transform:translateX(-3680px)}73.8%{transform:translateX(-3760px)}74.3%{transform:translateX(-3840px)}74.9%{transform:translateX(-3920px)}75.5%{transform:translateX(-4000px)}76.1%{transform:translateX(-4080px)}76.7%{transform:translateX(-4160px)}77.3%{transform:translateX(-4240px)}77.9%{transform:translateX(-4320px)}78.4%{transform:translateX(-4400px)}79%{transform:translateX(-4480px)}79.6%{transform:translateX(-4560px)}80.2%{transform:translateX(-4640px)}80.8%{transform:translateX(-4720px)}81.4%{transform:translateX(-4800px)}82%{transform:translateX(-4880px)}82.6%{transform:translateX(-4960px)}83.1%{transform:translateX(-5040px)}83.7%{transform:translateX(-5120px)}84.3%{transform:translateX(-5200px)}84.9%{transform:translateX(-5280px)}85.5%{transform:translateX(-5360px)}86.1%{transform:translateX(-5440px)}86.7%{transform:translateX(-5520px)}87.3%{transform:translateX(-5600px)}87.8%{transform:translateX(-5680px)}88.4%{transform:translateX(-5760px)}89%{transform:translateX(-5840px)}89.6%{transform:translateX(-5920px)}90.2%{transform:translateX(-6000px)}90.8%{transform:translateX(-6080px)}91.4%{transform:translateX(-6160px)}91.9%{transform:translateX(-6240px)}92.5%{transform:translateX(-6320px)}93.1%{transform:translateX(-6400px)}93.7%{transform:translateX(-6480px)}94.3%{transform:translateX(-6560px)}94.9%{transform:translateX(-6640px)}95.5%{transform:translateX(-6720px)}96.1%{transform:translateX(-6800px)}to{transform:translateX(-7040px)}}.a{fill:#282d35}.f,.g{fill:#b9c0cb;white-space:pre}.g{font-weight:700}.h,.i,.j,.n{fill:#a8cc8c;white-space:pre}.i,.j,.n{fill:#66c2cd}.j,.n{font-weight:700}.n{fill:#a8cc8c}</style><g font-family="Monaco,Consolas,Menlo,'Bitstream Vera Sans Mono','Powerline Symbols',monospace" font-size="1.67"><defs><symbol id="1"><text y="1.67" class="f">$</text><text x="2.004" y="1.67" class="f">b</text></symbol><symbol id="2"><text y="1.67" class="f">$</text><text x="2.004" y="1.67" class="f">bu</text></symbol><symbol id="3"><text y="1.67" class="f">$</text><text x="2.004" y="1.67" class="f">bun</text></symbol><symbol id="4"><text y="1.67" class="f">$</text><text x="2.004" y="1.67" class="f">bun</text><text x="6.012" y="1.67" class="f">/</text></symbol><symbol id="5"><text y="1.67" class="f">$</text><text x="2.004" y="1.67" class="f">bun</text><text x="6.012" y="1.67" class="f">/h</text></symbol><symbol id="6"><text y="1.67" class="f">$</text><text x="2.004" y="1.67" class="f">bun</text><text x="6.012" y="1.67" class="f">/ho</text></symbol><symbol id="7"><text y="1.67" class="f">$</text><text x="2.004" y="1.67" class="f">bun</text><text x="6.012" y="1.67" class="f">/hom</text></symbol><symbol id="8"><text y="1.67" class="f">$</text><text x="2.004" y="1.67" class="f">bun</text><text x="6.012" y="1.67" class="f">/home</text></symbol><symbol id="9"><text y="1.67" class="f">$</text><text x="2.004" y="1.67" class="f">bun</text><text x="6.012" y="1.67" class="f">/home/</text></symbol><symbol id="10"><text y="1.67" class="f">$</text><text x="2.004" y="1.67" class="f">bun</text><text x="6.012" y="1.67" class="f">/home/D</text></symbol><symbol id="11"><text y="1.67" class="f">$</text><text x="2.004" y="1.67" class="f">bun</text><text x="6.012" y="1.67" class="f">/home/Dr</text></symbol><symbol id="12"><text y="1.67" class="f">$</text><text x="2.004" y="1.67" class="f">bun</text><text x="6.012" y="1.67" class="f">/home/Dr/</text></symbol><symbol id="13"><text y="1.67" class="f">$</text><text x="2.004" y="1.67" class="f">bun</text><text x="6.012" y="1.67" class="f">/home/Dr/g</text></symbol><symbol id="14"><text y="1.67" class="f">$</text><text x="2.004" y="1.67" class="f">bun</text><text x="6.012" y="1.67" class="f">/home/Dr/gi</text></symbol><symbol id="15"><text y="1.67" class="f">$</text><text x="2.004" y="1.67" class="f">bun</text><text x="6.012" y="1.67" class="f">/home/Dr/git</text></symbol><symbol id="16"><text y="1.67" class="f">$</text><text x="2.004" y="1.67" class="f">bun</text><text x="6.012" y="1.67" class="f">/home/Dr/git-</text></symbol><symbol id="17"><text y="1.67" class="f">$</text><text x="2.004" y="1.67" class="f">bun</text><text x="6.012" y="1.67" class="f">/home/Dr/git-u</text></symbol><symbol id="18"><text y="1.67" class="f">$</text><text x="2.004" y="1.67" class="f">bun</text><text x="6.012" y="1.67" class="f">/home/Dr/git-un</text></symbol><symbol id="19"><text y="1.67" class="f">$</text><text x="2.004" y="1.67" class="f">bun</text><text x="6.012" y="1.67" class="f">/home/Dr/git-und</text></symbol><symbol id="20"><text y="1.67" class="f">$</text><text x="2.004" y="1.67" class="f">bun</text><text x="6.012" y="1.67" class="f">/home/Dr/git-undo</text></symbol><symbol id="21"><text y="1.67" class="f">$</text><text x="2.004" y="1.67" class="f">bun</text><text x="6.012" y="1.67" class="f">/home/Dr/git-undo/</text></symbol><symbol id="22"><text y="1.67" class="f">$</text><text x="2.004" y="1.67" class="f">bun</text><text x="6.012" y="1.67" class="f">/home/Dr/git-undo/s</text></symbol><symbol id="23"><text y="1.67" class="f">$</text><text x="2.004" y="1.67" class="f">bun</text><text x="6.012" y="1.67" class="f">/home/Dr/git-undo/sr</text></symbol><symbol id="24"><text y="1.67" class="f">$</text><text x="2.004" y="1.67" class="f">bun</text><text x="6.012" y="1.67" class="f">/home/Dr/git-undo/src</text></symbol><symbol id="25"><text y="1.67" class="f">$</text><text x="2.004" y="1.67" class="f">bun</text><text x="6.012" y="1.67" class="f">/home/Dr/git-undo/src/</text></symbol><symbol id="26"><text y="1.67" class="f">$</text><text x="2.004" y="1.67" class="f">bun</text><text x="6.012" y="1.67" class="f">/home/Dr/git-undo/src/i</text></symbol><symbol id="27"><text y="1.67" class="f">$</text><text x="2.004" y="1.67" class="f">bun</text><text x="6.012" y="1.67" class="f">/home/Dr/git-undo/src/in</text></symbol><symbol id="28"><text y="1.67" class="f">$</text><text x="2.004" y="1.67" class="f">bun</text><text x="6.012" y="1.67" class="f">/home/Dr/git-undo/src/ind</text></symbol><symbol id="29"><text y="1.67" class="f">$</text><text x="2.004" y="1.67" class="f">bun</text><text x="6.012" y="1.67" class="f">/home/Dr/git-undo/src/inde</text></symbol><symbol id="30"><text y="1.67" class="f">$</text><text x="2.004" y="1.67" class="f">bun</text><text x="6.012" y="1.67" class="f">/home/Dr/git-undo/src/index</text></symbol><symbol id="31"><text y="1.67" class="f">$</text><text x="2.004" y="1.67" class="f">bun</text><text x="6.012" y="1.67" class="f">/home/Dr/git-undo/src/index.</text></symbol><symbol id="32"><text y="1.67" class="f">$</text><text x="2.004" y="1.67" class="f">bun</text><text x="6.012" y="1.67" class="f">/home/Dr/git-undo/src/index.t</text></symbol><symbol id="33"><text y="1.67" class="f">$</text><text x="2.004" y="1.67" class="f">bun</text><text x="6.012" y="1.67" class="f">/home/Dr/git-undo/src/index.ts</text></symbol><symbol id="34"><text x="2.004" y="1.67" class="g">Your</text><text x="7.014" y="1.67" class="g">recent</text><text x="14.028" y="1.67" class="g">git</text><text x="18.036" y="1.67" class="g">actions:</text><text x="28.056" y="1.67" class="f">(newest</text><text x="36.072" y="1.67" class="f">first)</text></symbol><symbol id="35"><text x="2.004" y="1.67" class="f">👉</text><text x="5.01" y="1.67" class="h">Switched</text><text x="14.028" y="1.67" class="h">from</text><text x="19.038" y="1.67" class="h">branch</text><text x="26.052" y="1.67" class="h">&apos;feature-branch&apos;</text><text x="43.086" y="1.67" class="h">to</text><text x="46.092" y="1.67" class="h">&apos;main&apos;</text><text x="54.108" y="1.67" class="f">c337a61</text><text x="63.126" y="1.67" class="f">just</text><text x="68.136" y="1.67" class="f">now</text></symbol><symbol id="36"><text x="5.01" y="1.67" class="h">●</text><text x="7.014" y="1.67" class="h">safe</text><text x="13.026" y="1.67" class="f">undo:</text><text x="19.038" y="1.67" class="i">git</text><text x="23.046" y="1.67" class="i">checkout</text><text x="32.064" y="1.67" class="i">feature-branch</text></symbol><symbol id="37"><text x="2.004" y="1.67" class="f">✏️</text><text x="6.012" y="1.67" class="h">Created</text><text x="14.028" y="1.67" class="h">a</text><text x="16.032" y="1.67" class="h">new</text><text x="20.04" y="1.67" class="h">commit:</text><text x="28.056" y="1.67" class="h">&quot;wip:</text><text x="34.068" y="1.67" class="h">new</text><text x="38.076" y="1.67" class="h">dashboard&quot;</text><text x="50.1" y="1.67" class="f">e8d2ba3</text><text x="59.118" y="1.67" class="f">just</text><text x="64.128" y="1.67" class="f">now</text></symbol><symbol id="38"><text x="5.01" y="1.67" class="h">●</text><text x="7.014" y="1.67" class="h">safe</text><text x="13.026" y="1.67" class="f">undo:</text><text x="19.038" y="1.67" class="i">git</text><text x="23.046" y="1.67" class="i">reset</text><text x="29.058" y="1.67" class="i">--soft</text><text x="36.072" y="1.67" class="i">HEAD~1</text></symbol><symbol id="39"><text x="2.004" y="1.67" class="f">👉</text><text x="5.01" y="1.67" class="h">Switched</text><text x="14.028" y="1.67" class="h">from</text><text x="19.038" y="1.67" class="h">branch</text><text x="26.052" y="1.67" class="h">&apos;main&apos;</text><text x="33.066" y="1.67" class="h">to</text><text x="36.072" y="1.67" class="h">&apos;feature-branch&apos;</text><text x="54.108" y="1.67" class="f">c337a61</text><text x="63.126" y="1.67" class="f">just</text><text x="68.136" y="1.67" class="f">now</text></symbol><symbol id="40"><text x="5.01" y="1.67" class="h">●</text><text x="7.014" y="1.67" class="h">safe</text><text x="13.026" y="1.67" class="f">undo:</text><text x="19.038" y="1.67" class="i">git</text><text x="23.046" y="1.67" class="i">checkout</text><text x="32.064" y="1.67" class="i">main</text></symbol><symbol id="41"><text x="2.004" y="1.67" class="f">✏️</text><text x="6.012" y="1.67" class="h">Created</text><text x="14.028" y="1.67" class="h">a</text><text x="16.032" y="1.67" class="h">new</text><text x="20.04" y="1.67" class="h">commit:</text><text x="28.056" y="1.67" class="h">&quot;fix</text><text x="33.066" y="1.67" class="h">auth</text><text x="38.076" y="1.67" class="h">bug&quot;</text><text x="44.088" y="1.67" class="f">c337a61</text><text x="53.106" y="1.67" class="f">just</text><text x="58.116" y="1.67" class="f">now</text></symbol><symbol id="42"><text x="2.004" y="1.67" class="f">✏️</text><text x="6.012" y="1.67" class="h">Created</text><text x="14.028" y="1.67" class="h">a</text><text x="16.032" y="1.67" class="h">new</text><text x="20.04" y="1.67" class="h">commit:</text><text x="28.056" y="1.67" class="h">&quot;add</text><text x="33.066" y="1.67" class="h">login</text><text x="39.078" y="1.67" class="h">feature&quot;</text><text x="49.098" y="1.67" class="f">8d4f550</text><text x="58.116" y="1.67" class="f">just</text><text x="63.126" y="1.67" class="f">now</text></symbol><symbol id="43"><text x="2.004" y="1.67" class="f">✏️</text><text x="6.012" y="1.67" class="h">Created</text><text x="14.028" y="1.67" class="h">a</text><text x="16.032" y="1.67" class="h">new</text><text x="20.04" y="1.67" class="h">commit:</text><text x="28.056" y="1.67" class="h">&quot;initial</text><text x="37.074" y="1.67" class="h">commit&quot;</text><text x="46.092" y="1.67" class="f">9913b32</text><text x="55.11" y="1.67" class="f">just</text><text x="60.12" y="1.67" class="f">now</text></symbol><symbol id="44"><text y="1.67" class="f">$</text><text x="2.004" y="1.67" class="f">bun</text><text x="6.012" y="1.67" class="f">/home/Dr/git-undo/src/index.ts</text><text x="37.074" y="1.67" class="f">last</text></symbol><symbol id="45"><text y="1.67" class="f">$</text><text x="2.004" y="1.67" class="f">bun</text><text x="6.012" y="1.67" class="f">/home/Dr/git-undo/src/index.ts</text><text x="37.074" y="1.67" class="f">last</text><text x="42.084" y="1.67" class="f">--yes</text></symbol><symbol id="46"><text x="2.004" y="1.67" class="g">Undoing</text><text x="10.02" y="1.67" class="g">your</text><text x="15.03" y="1.67" class="g">last</text><text x="20.04" y="1.67" class="g">action:</text></symbol><symbol id="47"><text x="2.004" y="1.67" class="f">👉</text><text x="5.01" y="1.67" class="h">Switched</text><text x="14.028" y="1.67" class="h">from</text><text x="19.038" y="1.67" class="h">branch</text><text x="26.052" y="1.67" class="h">&apos;feature-branch&apos;</text><text x="43.086" y="1.67" class="h">to</text><text x="46.092" y="1.67" class="h">&apos;main&apos;</text></symbol><symbol id="48"><text x="5.01" y="1.67" class="f">just</text><text x="10.02" y="1.67" class="f">now</text></symbol><symbol id="49"><text x="2.004" y="1.67" class="f">Will</text><text x="7.014" y="1.67" class="f">run:</text><text x="12.024" y="1.67" class="j">git</text><text x="16.032" y="1.67" class="j">checkout</text><text x="25.05" y="1.67" class="j">feature-branch</text></symbol><symbol id="a"><path fill="transparent" d="M0 0h80v25H0z"/></symbol></defs><path class="a" d="M0 0h80v52.104H0z"/><g style="animation-duration:8.754216s;animation-iteration-count:infinite;animation-name:l;animation-timing-function:steps(1,end)"><svg width="7120"><svg><use xlink:href="#a"/></svg><svg x="80"><use xlink:href="#a"/></svg><svg x="160"><use xlink:href="#a"/><text y="3.841" class="f">$</text></svg><svg x="240"><use xlink:href="#a"/><use xlink:href="#1" y="2.171"/></svg><svg x="320"><use xlink:href="#a"/><use xlink:href="#2" y="2.171"/></svg><svg x="400"><use xlink:href="#a"/><use xlink:href="#3" y="2.171"/></svg><svg x="480"><use xlink:href="#a"/><use xlink:href="#3" y="2.171"/></svg><svg x="560"><use xlink:href="#a"/><use xlink:href="#4" y="2.171"/></svg><svg x="640"><use xlink:href="#a"/><use xlink:href="#5" y="2.171"/></svg><svg x="720"><use xlink:href="#a"/><use xlink:href="#6" y="2.171"/></svg><svg x="800"><use xlink:href="#a"/><use xlink:href="#7" y="2.171"/></svg><svg x="880"><use xlink:href="#a"/><use xlink:href="#8" y="2.171"/></svg><svg x="960"><use xlink:href="#a"/><use xlink:href="#9" y="2.171"/></svg><svg x="1040"><use xlink:href="#a"/><use xlink:href="#10" y="2.171"/></svg><svg x="1120"><use xlink:href="#a"/><use xlink:href="#11" y="2.171"/></svg><svg x="1200"><use xlink:href="#a"/><use xlink:href="#12" y="2.171"/></svg><svg x="1280"><use xlink:href="#a"/><use xlink:href="#13" y="2.171"/></svg><svg x="1360"><use xlink:href="#a"/><use xlink:href="#14" y="2.171"/></svg><svg x="1440"><use xlink:href="#a"/><use xlink:href="#15" y="2.171"/></svg><svg x="1520"><use xlink:href="#a"/><use xlink:href="#16" y="2.171"/></svg><svg x="1600"><use xlink:href="#a"/><use xlink:href="#17" y="2.171"/></svg><svg x="1680"><use xlink:href="#a"/><use xlink:href="#18" y="2.171"/></svg><svg x="1760"><use xlink:href="#a"/><use xlink:href="#19" y="2.171"/></svg><svg x="1840"><use xlink:href="#a"/><use xlink:href="#20" y="2.171"/></svg><svg x="1920"><use xlink:href="#a"/><use xlink:href="#21" y="2.171"/></svg><svg x="2000"><use xlink:href="#a"/><use xlink:href="#22" y="2.171"/></svg><svg x="2080"><use xlink:href="#a"/><use xlink:href="#23" y="2.171"/></svg><svg x="2160"><use xlink:href="#a"/><use xlink:href="#24" y="2.171"/></svg><svg x="2240"><use xlink:href="#a"/><use xlink:href="#25" y="2.171"/></svg><svg x="2320"><use xlink:href="#a"/><use xlink:href="#26" y="2.171"/></svg><svg x="2400"><use xlink:href="#a"/><use xlink:href="#27" y="2.171"/></svg><svg x="2480"><use xlink:href="#a"/><use xlink:href="#28" y="2.171"/></svg><svg x="2560"><use xlink:href="#a"/><use xlink:href="#29" y="2.171"/></svg><svg x="2640"><use xlink:href="#a"/><use xlink:href="#30" y="2.171"/></svg><svg x="2720"><use xlink:href="#a"/><use xlink:href="#31" y="2.171"/></svg><svg x="2800"><use xlink:href="#a"/><use xlink:href="#32" y="2.171"/></svg><svg x="2880"><use xlink:href="#a"/><use xlink:href="#33" y="2.171"/></svg><svg x="2960"><use xlink:href="#a"/><use xlink:href="#33" y="2.171"/></svg><svg x="3040"><use xlink:href="#a"/><use xlink:href="#33" y="2.171"/></svg><svg x="3120"><use xlink:href="#a"/><use xlink:href="#33" y="2.171"/><use xlink:href="#34" y="6.513"/><use xlink:href="#35" y="10.855"/><use xlink:href="#36" y="13.026"/><use xlink:href="#37" y="17.368"/><use xlink:href="#38" y="19.539"/><use xlink:href="#39" y="23.881"/><use xlink:href="#40" y="26.052"/><use xlink:href="#41" y="30.394"/><use xlink:href="#38" y="32.565"/><use xlink:href="#42" y="36.907"/><use xlink:href="#38" y="39.078"/><use xlink:href="#43" y="43.42"/><use xlink:href="#38" y="45.591"/></svg><svg x="3200"><use xlink:href="#a"/><use xlink:href="#33" y="2.171"/><use xlink:href="#34" y="6.513"/><use xlink:href="#35" y="10.855"/><use xlink:href="#36" y="13.026"/><use xlink:href="#37" y="17.368"/><use xlink:href="#38" y="19.539"/><use xlink:href="#39" y="23.881"/><use xlink:href="#40" y="26.052"/><use xlink:href="#41" y="30.394"/><use xlink:href="#38" y="32.565"/><use xlink:href="#42" y="36.907"/><use xlink:href="#38" y="39.078"/><use xlink:href="#43" y="43.42"/><use xlink:href="#38" y="45.591"/><use xlink:href="#1" y="52.104"/></svg><svg x="3280"><use xlink:href="#a"/><use xlink:href="#33" y="2.171"/><use xlink:href="#34" y="6.513"/><use xlink:href="#35" y="10.855"/><use xlink:href="#36" y="13.026"/><use xlink:href="#37" y="17.368"/><use xlink:href="#38" y="19.539"/><use xlink:href="#39" y="23.881"/><use xlink:href="#40" y="26.052"/><use xlink:href="#41" y="30.394"/><use xlink:href="#38" y="32.565"/><use xlink:href="#42" y="36.907"/><use xlink:href="#38" y="39.078"/><use xlink:href="#43" y="43.42"/><use xlink:href="#38" y="45.591"/><use xlink:href="#2" y="52.104"/></svg><svg x="3360"><use xlink:href="#a"/><use xlink:href="#33" y="2.171"/><use xlink:href="#34" y="6.513"/><use xlink:href="#35" y="10.855"/><use xlink:href="#36" y="13.026"/><use xlink:href="#37" y="17.368"/><use xlink:href="#38" y="19.539"/><use xlink:href="#39" y="23.881"/><use xlink:href="#40" y="26.052"/><use xlink:href="#41" y="30.394"/><use xlink:href="#38" y="32.565"/><use xlink:href="#42" y="36.907"/><use xlink:href="#38" y="39.078"/><use xlink:href="#43" y="43.42"/><use xlink:href="#38" y="45.591"/><use xlink:href="#3" y="52.104"/></svg><svg x="3440"><use xlink:href="#a"/><use xlink:href="#33" y="2.171"/><use xlink:href="#34" y="6.513"/><use xlink:href="#35" y="10.855"/><use xlink:href="#36" y="13.026"/><use xlink:href="#37" y="17.368"/><use xlink:href="#38" y="19.539"/><use xlink:href="#39" y="23.881"/><use xlink:href="#40" y="26.052"/><use xlink:href="#41" y="30.394"/><use xlink:href="#38" y="32.565"/><use xlink:href="#42" y="36.907"/><use xlink:href="#38" y="39.078"/><use xlink:href="#43" y="43.42"/><use xlink:href="#38" y="45.591"/><use xlink:href="#3" y="52.104"/></svg><svg x="3520"><use xlink:href="#a"/><use xlink:href="#33" y="2.171"/><use xlink:href="#34" y="6.513"/><use xlink:href="#35" y="10.855"/><use xlink:href="#36" y="13.026"/><use xlink:href="#37" y="17.368"/><use xlink:href="#38" y="19.539"/><use xlink:href="#39" y="23.881"/><use xlink:href="#40" y="26.052"/><use xlink:href="#41" y="30.394"/><use xlink:href="#38" y="32.565"/><use xlink:href="#42" y="36.907"/><use xlink:href="#38" y="39.078"/><use xlink:href="#43" y="43.42"/><use xlink:href="#38" y="45.591"/><use xlink:href="#4" y="52.104"/></svg><svg x="3600"><use xlink:href="#a"/><use xlink:href="#33" y="2.171"/><use xlink:href="#34" y="6.513"/><use xlink:href="#35" y="10.855"/><use xlink:href="#36" y="13.026"/><use xlink:href="#37" y="17.368"/><use xlink:href="#38" y="19.539"/><use xlink:href="#39" y="23.881"/><use xlink:href="#40" y="26.052"/><use xlink:href="#41" y="30.394"/><use xlink:href="#38" y="32.565"/><use xlink:href="#42" y="36.907"/><use xlink:href="#38" y="39.078"/><use xlink:href="#43" y="43.42"/><use xlink:href="#38" y="45.591"/><use xlink:href="#5" y="52.104"/></svg><svg x="3680"><use xlink:href="#a"/><use xlink:href="#33" y="2.171"/><use xlink:href="#34" y="6.513"/><use xlink:href="#35" y="10.855"/><use xlink:href="#36" y="13.026"/><use xlink:href="#37" y="17.368"/><use xlink:href="#38" y="19.539"/><use xlink:href="#39" y="23.881"/><use xlink:href="#40" y="26.052"/><use xlink:href="#41" y="30.394"/><use xlink:href="#38" y="32.565"/><use xlink:href="#42" y="36.907"/><use xlink:href="#38" y="39.078"/><use xlink:href="#43" y="43.42"/><use xlink:href="#38" y="45.591"/><use xlink:href="#6" y="52.104"/></svg><svg x="3760"><use xlink:href="#a"/><use xlink:href="#33" y="2.171"/><use xlink:href="#34" y="6.513"/><use xlink:href="#35" y="10.855"/><use xlink:href="#36" y="13.026"/><use xlink:href="#37" y="17.368"/><use xlink:href="#38" y="19.539"/><use xlink:href="#39" y="23.881"/><use xlink:href="#40" y="26.052"/><use xlink:href="#41" y="30.394"/><use xlink:href="#38" y="32.565"/><use xlink:href="#42" y="36.907"/><use xlink:href="#38" y="39.078"/><use xlink:href="#43" y="43.42"/><use xlink:href="#38" y="45.591"/><use xlink:href="#7" y="52.104"/></svg><svg x="3840"><use xlink:href="#a"/><use xlink:href="#33" y="2.171"/><use xlink:href="#34" y="6.513"/><use xlink:href="#35" y="10.855"/><use xlink:href="#36" y="13.026"/><use xlink:href="#37" y="17.368"/><use xlink:href="#38" y="19.539"/><use xlink:href="#39" y="23.881"/><use xlink:href="#40" y="26.052"/><use xlink:href="#41" y="30.394"/><use xlink:href="#38" y="32.565"/><use xlink:href="#42" y="36.907"/><use xlink:href="#38" y="39.078"/><use xlink:href="#43" y="43.42"/><use xlink:href="#38" y="45.591"/><use xlink:href="#8" y="52.104"/></svg><svg x="3920"><use xlink:href="#a"/><use xlink:href="#33" y="2.171"/><use xlink:href="#34" y="6.513"/><use xlink:href="#35" y="10.855"/><use xlink:href="#36" y="13.026"/><use xlink:href="#37" y="17.368"/><use xlink:href="#38" y="19.539"/><use xlink:href="#39" y="23.881"/><use xlink:href="#40" y="26.052"/><use xlink:href="#41" y="30.394"/><use xlink:href="#38" y="32.565"/><use xlink:href="#42" y="36.907"/><use xlink:href="#38" y="39.078"/><use xlink:href="#43" y="43.42"/><use xlink:href="#38" y="45.591"/><use xlink:href="#9" y="52.104"/></svg><svg x="4000"><use xlink:href="#a"/><use xlink:href="#33" y="2.171"/><use xlink:href="#34" y="6.513"/><use xlink:href="#35" y="10.855"/><use xlink:href="#36" y="13.026"/><use xlink:href="#37" y="17.368"/><use xlink:href="#38" y="19.539"/><use xlink:href="#39" y="23.881"/><use xlink:href="#40" y="26.052"/><use xlink:href="#41" y="30.394"/><use xlink:href="#38" y="32.565"/><use xlink:href="#42" y="36.907"/><use xlink:href="#38" y="39.078"/><use xlink:href="#43" y="43.42"/><use xlink:href="#38" y="45.591"/><use xlink:href="#10" y="52.104"/></svg><svg x="4080"><use xlink:href="#a"/><use xlink:href="#33" y="2.171"/><use xlink:href="#34" y="6.513"/><use xlink:href="#35" y="10.855"/><use xlink:href="#36" y="13.026"/><use xlink:href="#37" y="17.368"/><use xlink:href="#38" y="19.539"/><use xlink:href="#39" y="23.881"/><use xlink:href="#40" y="26.052"/><use xlink:href="#41" y="30.394"/><use xlink:href="#38" y="32.565"/><use xlink:href="#42" y="36.907"/><use xlink:href="#38" y="39.078"/><use xlink:href="#43" y="43.42"/><use xlink:href="#38" y="45.591"/><use xlink:href="#11" y="52.104"/></svg><svg x="4160"><use xlink:href="#a"/><use xlink:href="#33" y="2.171"/><use xlink:href="#34" y="6.513"/><use xlink:href="#35" y="10.855"/><use xlink:href="#36" y="13.026"/><use xlink:href="#37" y="17.368"/><use xlink:href="#38" y="19.539"/><use xlink:href="#39" y="23.881"/><use xlink:href="#40" y="26.052"/><use xlink:href="#41" y="30.394"/><use xlink:href="#38" y="32.565"/><use xlink:href="#42" y="36.907"/><use xlink:href="#38" y="39.078"/><use xlink:href="#43" y="43.42"/><use xlink:href="#38" y="45.591"/><use xlink:href="#12" y="52.104"/></svg><svg x="4240"><use xlink:href="#a"/><use xlink:href="#33" y="2.171"/><use xlink:href="#34" y="6.513"/><use xlink:href="#35" y="10.855"/><use xlink:href="#36" y="13.026"/><use xlink:href="#37" y="17.368"/><use xlink:href="#38" y="19.539"/><use xlink:href="#39" y="23.881"/><use xlink:href="#40" y="26.052"/><use xlink:href="#41" y="30.394"/><use xlink:href="#38" y="32.565"/><use xlink:href="#42" y="36.907"/><use xlink:href="#38" y="39.078"/><use xlink:href="#43" y="43.42"/><use xlink:href="#38" y="45.591"/><use xlink:href="#13" y="52.104"/></svg><svg x="4320"><use xlink:href="#a"/><use xlink:href="#33" y="2.171"/><use xlink:href="#34" y="6.513"/><use xlink:href="#35" y="10.855"/><use xlink:href="#36" y="13.026"/><use xlink:href="#37" y="17.368"/><use xlink:href="#38" y="19.539"/><use xlink:href="#39" y="23.881"/><use xlink:href="#40" y="26.052"/><use xlink:href="#41" y="30.394"/><use xlink:href="#38" y="32.565"/><use xlink:href="#42" y="36.907"/><use xlink:href="#38" y="39.078"/><use xlink:href="#43" y="43.42"/><use xlink:href="#38" y="45.591"/><use xlink:href="#14" y="52.104"/></svg><svg x="4400"><use xlink:href="#a"/><use xlink:href="#33" y="2.171"/><use xlink:href="#34" y="6.513"/><use xlink:href="#35" y="10.855"/><use xlink:href="#36" y="13.026"/><use xlink:href="#37" y="17.368"/><use xlink:href="#38" y="19.539"/><use xlink:href="#39" y="23.881"/><use xlink:href="#40" y="26.052"/><use xlink:href="#41" y="30.394"/><use xlink:href="#38" y="32.565"/><use xlink:href="#42" y="36.907"/><use xlink:href="#38" y="39.078"/><use xlink:href="#43" y="43.42"/><use xlink:href="#38" y="45.591"/><use xlink:href="#15" y="52.104"/></svg><svg x="4480"><use xlink:href="#a"/><use xlink:href="#33" y="2.171"/><use xlink:href="#34" y="6.513"/><use xlink:href="#35" y="10.855"/><use xlink:href="#36" y="13.026"/><use xlink:href="#37" y="17.368"/><use xlink:href="#38" y="19.539"/><use xlink:href="#39" y="23.881"/><use xlink:href="#40" y="26.052"/><use xlink:href="#41" y="30.394"/><use xlink:href="#38" y="32.565"/><use xlink:href="#42" y="36.907"/><use xlink:href="#38" y="39.078"/><use xlink:href="#43" y="43.42"/><use xlink:href="#38" y="45.591"/><use xlink:href="#16" y="52.104"/></svg><svg x="4560"><use xlink:href="#a"/><use xlink:href="#33" y="2.171"/><use xlink:href="#34" y="6.513"/><use xlink:href="#35" y="10.855"/><use xlink:href="#36" y="13.026"/><use xlink:href="#37" y="17.368"/><use xlink:href="#38" y="19.539"/><use xlink:href="#39" y="23.881"/><use xlink:href="#40" y="26.052"/><use xlink:href="#41" y="30.394"/><use xlink:href="#38" y="32.565"/><use xlink:href="#42" y="36.907"/><use xlink:href="#38" y="39.078"/><use xlink:href="#43" y="43.42"/><use xlink:href="#38" y="45.591"/><use xlink:href="#17" y="52.104"/></svg><svg x="4640"><use xlink:href="#a"/><use xlink:href="#33" y="2.171"/><use xlink:href="#34" y="6.513"/><use xlink:href="#35" y="10.855"/><use xlink:href="#36" y="13.026"/><use xlink:href="#37" y="17.368"/><use xlink:href="#38" y="19.539"/><use xlink:href="#39" y="23.881"/><use xlink:href="#40" y="26.052"/><use xlink:href="#41" y="30.394"/><use xlink:href="#38" y="32.565"/><use xlink:href="#42" y="36.907"/><use xlink:href="#38" y="39.078"/><use xlink:href="#43" y="43.42"/><use xlink:href="#38" y="45.591"/><use xlink:href="#18" y="52.104"/></svg><svg x="4720"><use xlink:href="#a"/><use xlink:href="#33" y="2.171"/><use xlink:href="#34" y="6.513"/><use xlink:href="#35" y="10.855"/><use xlink:href="#36" y="13.026"/><use xlink:href="#37" y="17.368"/><use xlink:href="#38" y="19.539"/><use xlink:href="#39" y="23.881"/><use xlink:href="#40" y="26.052"/><use xlink:href="#41" y="30.394"/><use xlink:href="#38" y="32.565"/><use xlink:href="#42" y="36.907"/><use xlink:href="#38" y="39.078"/><use xlink:href="#43" y="43.42"/><use xlink:href="#38" y="45.591"/><use xlink:href="#19" y="52.104"/></svg><svg x="4800"><use xlink:href="#a"/><use xlink:href="#33" y="2.171"/><use xlink:href="#34" y="6.513"/><use xlink:href="#35" y="10.855"/><use xlink:href="#36" y="13.026"/><use xlink:href="#37" y="17.368"/><use xlink:href="#38" y="19.539"/><use xlink:href="#39" y="23.881"/><use xlink:href="#40" y="26.052"/><use xlink:href="#41" y="30.394"/><use xlink:href="#38" y="32.565"/><use xlink:href="#42" y="36.907"/><use xlink:href="#38" y="39.078"/><use xlink:href="#43" y="43.42"/><use xlink:href="#38" y="45.591"/><use xlink:href="#20" y="52.104"/></svg><svg x="4880"><use xlink:href="#a"/><use xlink:href="#33" y="2.171"/><use xlink:href="#34" y="6.513"/><use xlink:href="#35" y="10.855"/><use xlink:href="#36" y="13.026"/><use xlink:href="#37" y="17.368"/><use xlink:href="#38" y="19.539"/><use xlink:href="#39" y="23.881"/><use xlink:href="#40" y="26.052"/><use xlink:href="#41" y="30.394"/><use xlink:href="#38" y="32.565"/><use xlink:href="#42" y="36.907"/><use xlink:href="#38" y="39.078"/><use xlink:href="#43" y="43.42"/><use xlink:href="#38" y="45.591"/><use xlink:href="#21" y="52.104"/></svg><svg x="4960"><use xlink:href="#a"/><use xlink:href="#33" y="2.171"/><use xlink:href="#34" y="6.513"/><use xlink:href="#35" y="10.855"/><use xlink:href="#36" y="13.026"/><use xlink:href="#37" y="17.368"/><use xlink:href="#38" y="19.539"/><use xlink:href="#39" y="23.881"/><use xlink:href="#40" y="26.052"/><use xlink:href="#41" y="30.394"/><use xlink:href="#38" y="32.565"/><use xlink:href="#42" y="36.907"/><use xlink:href="#38" y="39.078"/><use xlink:href="#43" y="43.42"/><use xlink:href="#38" y="45.591"/><use xlink:href="#22" y="52.104"/></svg><svg x="5040"><use xlink:href="#a"/><use xlink:href="#33" y="2.171"/><use xlink:href="#34" y="6.513"/><use xlink:href="#35" y="10.855"/><use xlink:href="#36" y="13.026"/><use xlink:href="#37" y="17.368"/><use xlink:href="#38" y="19.539"/><use xlink:href="#39" y="23.881"/><use xlink:href="#40" y="26.052"/><use xlink:href="#41" y="30.394"/><use xlink:href="#38" y="32.565"/><use xlink:href="#42" y="36.907"/><use xlink:href="#38" y="39.078"/><use xlink:href="#43" y="43.42"/><use xlink:href="#38" y="45.591"/><use xlink:href="#23" y="52.104"/></svg><svg x="5120"><use xlink:href="#a"/><use xlink:href="#33" y="2.171"/><use xlink:href="#34" y="6.513"/><use xlink:href="#35" y="10.855"/><use xlink:href="#36" y="13.026"/><use xlink:href="#37" y="17.368"/><use xlink:href="#38" y="19.539"/><use xlink:href="#39" y="23.881"/><use xlink:href="#40" y="26.052"/><use xlink:href="#41" y="30.394"/><use xlink:href="#38" y="32.565"/><use xlink:href="#42" y="36.907"/><use xlink:href="#38" y="39.078"/><use xlink:href="#43" y="43.42"/><use xlink:href="#38" y="45.591"/><use xlink:href="#24" y="52.104"/></svg><svg x="5200"><use xlink:href="#a"/><use xlink:href="#33" y="2.171"/><use xlink:href="#34" y="6.513"/><use xlink:href="#35" y="10.855"/><use xlink:href="#36" y="13.026"/><use xlink:href="#37" y="17.368"/><use xlink:href="#38" y="19.539"/><use xlink:href="#39" y="23.881"/><use xlink:href="#40" y="26.052"/><use xlink:href="#41" y="30.394"/><use xlink:href="#38" y="32.565"/><use xlink:href="#42" y="36.907"/><use xlink:href="#38" y="39.078"/><use xlink:href="#43" y="43.42"/><use xlink:href="#38" y="45.591"/><use xlink:href="#25" y="52.104"/></svg><svg x="5280"><use xlink:href="#a"/><use xlink:href="#33" y="2.171"/><use xlink:href="#34" y="6.513"/><use xlink:href="#35" y="10.855"/><use xlink:href="#36" y="13.026"/><use xlink:href="#37" y="17.368"/><use xlink:href="#38" y="19.539"/><use xlink:href="#39" y="23.881"/><use xlink:href="#40" y="26.052"/><use xlink:href="#41" y="30.394"/><use xlink:href="#38" y="32.565"/><use xlink:href="#42" y="36.907"/><use xlink:href="#38" y="39.078"/><use xlink:href="#43" y="43.42"/><use xlink:href="#38" y="45.591"/><use xlink:href="#26" y="52.104"/></svg><svg x="5360"><use xlink:href="#a"/><use xlink:href="#33" y="2.171"/><use xlink:href="#34" y="6.513"/><use xlink:href="#35" y="10.855"/><use xlink:href="#36" y="13.026"/><use xlink:href="#37" y="17.368"/><use xlink:href="#38" y="19.539"/><use xlink:href="#39" y="23.881"/><use xlink:href="#40" y="26.052"/><use xlink:href="#41" y="30.394"/><use xlink:href="#38" y="32.565"/><use xlink:href="#42" y="36.907"/><use xlink:href="#38" y="39.078"/><use xlink:href="#43" y="43.42"/><use xlink:href="#38" y="45.591"/><use xlink:href="#27" y="52.104"/></svg><svg x="5440"><use xlink:href="#a"/><use xlink:href="#33" y="2.171"/><use xlink:href="#34" y="6.513"/><use xlink:href="#35" y="10.855"/><use xlink:href="#36" y="13.026"/><use xlink:href="#37" y="17.368"/><use xlink:href="#38" y="19.539"/><use xlink:href="#39" y="23.881"/><use xlink:href="#40" y="26.052"/><use xlink:href="#41" y="30.394"/><use xlink:href="#38" y="32.565"/><use xlink:href="#42" y="36.907"/><use xlink:href="#38" y="39.078"/><use xlink:href="#43" y="43.42"/><use xlink:href="#38" y="45.591"/><use xlink:href="#28" y="52.104"/></svg><svg x="5520"><use xlink:href="#a"/><use xlink:href="#33" y="2.171"/><use xlink:href="#34" y="6.513"/><use xlink:href="#35" y="10.855"/><use xlink:href="#36" y="13.026"/><use xlink:href="#37" y="17.368"/><use xlink:href="#38" y="19.539"/><use xlink:href="#39" y="23.881"/><use xlink:href="#40" y="26.052"/><use xlink:href="#41" y="30.394"/><use xlink:href="#38" y="32.565"/><use xlink:href="#42" y="36.907"/><use xlink:href="#38" y="39.078"/><use xlink:href="#43" y="43.42"/><use xlink:href="#38" y="45.591"/><use xlink:href="#29" y="52.104"/></svg><svg x="5600"><use xlink:href="#a"/><use xlink:href="#33" y="2.171"/><use xlink:href="#34" y="6.513"/><use xlink:href="#35" y="10.855"/><use xlink:href="#36" y="13.026"/><use xlink:href="#37" y="17.368"/><use xlink:href="#38" y="19.539"/><use xlink:href="#39" y="23.881"/><use xlink:href="#40" y="26.052"/><use xlink:href="#41" y="30.394"/><use xlink:href="#38" y="32.565"/><use xlink:href="#42" y="36.907"/><use xlink:href="#38" y="39.078"/><use xlink:href="#43" y="43.42"/><use xlink:href="#38" y="45.591"/><use xlink:href="#30" y="52.104"/></svg><svg x="5680"><use xlink:href="#a"/><use xlink:href="#33" y="2.171"/><use xlink:href="#34" y="6.513"/><use xlink:href="#35" y="10.855"/><use xlink:href="#36" y="13.026"/><use xlink:href="#37" y="17.368"/><use xlink:href="#38" y="19.539"/><use xlink:href="#39" y="23.881"/><use xlink:href="#40" y="26.052"/><use xlink:href="#41" y="30.394"/><use xlink:href="#38" y="32.565"/><use xlink:href="#42" y="36.907"/><use xlink:href="#38" y="39.078"/><use xlink:href="#43" y="43.42"/><use xlink:href="#38" y="45.591"/><use xlink:href="#31" y="52.104"/></svg><svg x="5760"><use xlink:href="#a"/><use xlink:href="#33" y="2.171"/><use xlink:href="#34" y="6.513"/><use xlink:href="#35" y="10.855"/><use xlink:href="#36" y="13.026"/><use xlink:href="#37" y="17.368"/><use xlink:href="#38" y="19.539"/><use xlink:href="#39" y="23.881"/><use xlink:href="#40" y="26.052"/><use xlink:href="#41" y="30.394"/><use xlink:href="#38" y="32.565"/><use xlink:href="#42" y="36.907"/><use xlink:href="#38" y="39.078"/><use xlink:href="#43" y="43.42"/><use xlink:href="#38" y="45.591"/><use xlink:href="#32" y="52.104"/></svg><svg x="5840"><use xlink:href="#a"/><use xlink:href="#33" y="2.171"/><use xlink:href="#34" y="6.513"/><use xlink:href="#35" y="10.855"/><use xlink:href="#36" y="13.026"/><use xlink:href="#37" y="17.368"/><use xlink:href="#38" y="19.539"/><use xlink:href="#39" y="23.881"/><use xlink:href="#40" y="26.052"/><use xlink:href="#41" y="30.394"/><use xlink:href="#38" y="32.565"/><use xlink:href="#42" y="36.907"/><use xlink:href="#38" y="39.078"/><use xlink:href="#43" y="43.42"/><use xlink:href="#38" y="45.591"/><use xlink:href="#33" y="52.104"/></svg><svg x="5920"><use xlink:href="#a"/><use xlink:href="#33" y="2.171"/><use xlink:href="#34" y="6.513"/><use xlink:href="#35" y="10.855"/><use xlink:href="#36" y="13.026"/><use xlink:href="#37" y="17.368"/><use xlink:href="#38" y="19.539"/><use xlink:href="#39" y="23.881"/><use xlink:href="#40" y="26.052"/><use xlink:href="#41" y="30.394"/><use xlink:href="#38" y="32.565"/><use xlink:href="#42" y="36.907"/><use xlink:href="#38" y="39.078"/><use xlink:href="#43" y="43.42"/><use xlink:href="#38" y="45.591"/><use xlink:href="#33" y="52.104"/></svg><svg x="6000"><use xlink:href="#a"/><use xlink:href="#33" y="2.171"/><use xlink:href="#34" y="6.513"/><use xlink:href="#35" y="10.855"/><use xlink:href="#36" y="13.026"/><use xlink:href="#37" y="17.368"/><use xlink:href="#38" y="19.539"/><use xlink:href="#39" y="23.881"/><use xlink:href="#40" y="26.052"/><use xlink:href="#41" y="30.394"/><use xlink:href="#38" y="32.565"/><use xlink:href="#42" y="36.907"/><use xlink:href="#38" y="39.078"/><use xlink:href="#43" y="43.42"/><use xlink:href="#38" y="45.591"/><text y="53.774" class="f">$</text><text x="2.004" y="53.774" class="f">bun</text><text x="6.012" y="53.774" class="f">/home/Dr/git-undo/src/index.ts</text><text x="37.074" y="53.774" class="f">l</text></svg><svg x="6080"><use xlink:href="#a"/><use xlink:href="#33" y="2.171"/><use xlink:href="#34" y="6.513"/><use xlink:href="#35" y="10.855"/><use xlink:href="#36" y="13.026"/><use xlink:href="#37" y="17.368"/><use xlink:href="#38" y="19.539"/><use xlink:href="#39" y="23.881"/><use xlink:href="#40" y="26.052"/><use xlink:href="#41" y="30.394"/><use xlink:href="#38" y="32.565"/><use xlink:href="#42" y="36.907"/><use xlink:href="#38" y="39.078"/><use xlink:href="#43" y="43.42"/><use xlink:href="#38" y="45.591"/><text y="53.774" class="f">$</text><text x="2.004" y="53.774" class="f">bun</text><text x="6.012" y="53.774" class="f">/home/Dr/git-undo/src/index.ts</text><text x="37.074" y="53.774" class="f">la</text></svg><svg x="6160"><use xlink:href="#a"/><use xlink:href="#33" y="2.171"/><use xlink:href="#34" y="6.513"/><use xlink:href="#35" y="10.855"/><use xlink:href="#36" y="13.026"/><use xlink:href="#37" y="17.368"/><use xlink:href="#38" y="19.539"/><use xlink:href="#39" y="23.881"/><use xlink:href="#40" y="26.052"/><use xlink:href="#41" y="30.394"/><use xlink:href="#38" y="32.565"/><use xlink:href="#42" y="36.907"/><use xlink:href="#38" y="39.078"/><use xlink:href="#43" y="43.42"/><use xlink:href="#38" y="45.591"/><text y="53.774" class="f">$</text><text x="2.004" y="53.774" class="f">bun</text><text x="6.012" y="53.774" class="f">/home/Dr/git-undo/src/index.ts</text><text x="37.074" y="53.774" class="f">las</text></svg><svg x="6240"><use xlink:href="#a"/><use xlink:href="#33" y="2.171"/><use xlink:href="#34" y="6.513"/><use xlink:href="#35" y="10.855"/><use xlink:href="#36" y="13.026"/><use xlink:href="#37" y="17.368"/><use xlink:href="#38" y="19.539"/><use xlink:href="#39" y="23.881"/><use xlink:href="#40" y="26.052"/><use xlink:href="#41" y="30.394"/><use xlink:href="#38" y="32.565"/><use xlink:href="#42" y="36.907"/><use xlink:href="#38" y="39.078"/><use xlink:href="#43" y="43.42"/><use xlink:href="#38" y="45.591"/><use xlink:href="#44" y="52.104"/></svg><svg x="6320"><use xlink:href="#a"/><use xlink:href="#33" y="2.171"/><use xlink:href="#34" y="6.513"/><use xlink:href="#35" y="10.855"/><use xlink:href="#36" y="13.026"/><use xlink:href="#37" y="17.368"/><use xlink:href="#38" y="19.539"/><use xlink:href="#39" y="23.881"/><use xlink:href="#40" y="26.052"/><use xlink:href="#41" y="30.394"/><use xlink:href="#38" y="32.565"/><use xlink:href="#42" y="36.907"/><use xlink:href="#38" y="39.078"/><use xlink:href="#43" y="43.42"/><use xlink:href="#38" y="45.591"/><use xlink:href="#44" y="52.104"/></svg><svg x="6400"><use xlink:href="#a"/><use xlink:href="#33" y="2.171"/><use xlink:href="#34" y="6.513"/><use xlink:href="#35" y="10.855"/><use xlink:href="#36" y="13.026"/><use xlink:href="#37" y="17.368"/><use xlink:href="#38" y="19.539"/><use xlink:href="#39" y="23.881"/><use xlink:href="#40" y="26.052"/><use xlink:href="#41" y="30.394"/><use xlink:href="#38" y="32.565"/><use xlink:href="#42" y="36.907"/><use xlink:href="#38" y="39.078"/><use xlink:href="#43" y="43.42"/><use xlink:href="#38" y="45.591"/><text y="53.774" class="f">$</text><text x="2.004" y="53.774" class="f">bun</text><text x="6.012" y="53.774" class="f">/home/Dr/git-undo/src/index.ts</text><text x="37.074" y="53.774" class="f">last</text><text x="42.084" y="53.774" class="f">-</text></svg><svg x="6480"><use xlink:href="#a"/><use xlink:href="#33" y="2.171"/><use xlink:href="#34" y="6.513"/><use xlink:href="#35" y="10.855"/><use xlink:href="#36" y="13.026"/><use xlink:href="#37" y="17.368"/><use xlink:href="#38" y="19.539"/><use xlink:href="#39" y="23.881"/><use xlink:href="#40" y="26.052"/><use xlink:href="#41" y="30.394"/><use xlink:href="#38" y="32.565"/><use xlink:href="#42" y="36.907"/><use xlink:href="#38" y="39.078"/><use xlink:href="#43" y="43.42"/><use xlink:href="#38" y="45.591"/><text y="53.774" class="f">$</text><text x="2.004" y="53.774" class="f">bun</text><text x="6.012" y="53.774" class="f">/home/Dr/git-undo/src/index.ts</text><text x="37.074" y="53.774" class="f">last</text><text x="42.084" y="53.774" class="f">--</text></svg><svg x="6560"><use xlink:href="#a"/><use xlink:href="#33" y="2.171"/><use xlink:href="#34" y="6.513"/><use xlink:href="#35" y="10.855"/><use xlink:href="#36" y="13.026"/><use xlink:href="#37" y="17.368"/><use xlink:href="#38" y="19.539"/><use xlink:href="#39" y="23.881"/><use xlink:href="#40" y="26.052"/><use xlink:href="#41" y="30.394"/><use xlink:href="#38" y="32.565"/><use xlink:href="#42" y="36.907"/><use xlink:href="#38" y="39.078"/><use xlink:href="#43" y="43.42"/><use xlink:href="#38" y="45.591"/><text y="53.774" class="f">$</text><text x="2.004" y="53.774" class="f">bun</text><text x="6.012" y="53.774" class="f">/home/Dr/git-undo/src/index.ts</text><text x="37.074" y="53.774" class="f">last</text><text x="42.084" y="53.774" class="f">--y</text></svg><svg x="6640"><use xlink:href="#a"/><use xlink:href="#33" y="2.171"/><use xlink:href="#34" y="6.513"/><use xlink:href="#35" y="10.855"/><use xlink:href="#36" y="13.026"/><use xlink:href="#37" y="17.368"/><use xlink:href="#38" y="19.539"/><use xlink:href="#39" y="23.881"/><use xlink:href="#40" y="26.052"/><use xlink:href="#41" y="30.394"/><use xlink:href="#38" y="32.565"/><use xlink:href="#42" y="36.907"/><use xlink:href="#38" y="39.078"/><use xlink:href="#43" y="43.42"/><use xlink:href="#38" y="45.591"/><text y="53.774" class="f">$</text><text x="2.004" y="53.774" class="f">bun</text><text x="6.012" y="53.774" class="f">/home/Dr/git-undo/src/index.ts</text><text x="37.074" y="53.774" class="f">last</text><text x="42.084" y="53.774" class="f">--ye</text></svg><svg x="6720"><use xlink:href="#a"/><use xlink:href="#33" y="2.171"/><use xlink:href="#34" y="6.513"/><use xlink:href="#35" y="10.855"/><use xlink:href="#36" y="13.026"/><use xlink:href="#37" y="17.368"/><use xlink:href="#38" y="19.539"/><use xlink:href="#39" y="23.881"/><use xlink:href="#40" y="26.052"/><use xlink:href="#41" y="30.394"/><use xlink:href="#38" y="32.565"/><use xlink:href="#42" y="36.907"/><use xlink:href="#38" y="39.078"/><use xlink:href="#43" y="43.42"/><use xlink:href="#38" y="45.591"/><use xlink:href="#45" y="52.104"/></svg><svg x="6800"><use xlink:href="#a"/><use xlink:href="#33"/><use xlink:href="#34" y="4.342"/><use xlink:href="#35" y="8.684"/><use xlink:href="#36" y="10.855"/><use xlink:href="#37" y="15.197"/><use xlink:href="#38" y="17.368"/><use xlink:href="#39" y="21.71"/><use xlink:href="#40" y="23.881"/><use xlink:href="#41" y="28.223"/><use xlink:href="#38" y="30.394"/><use xlink:href="#42" y="34.736"/><use xlink:href="#38" y="36.907"/><use xlink:href="#43" y="41.249"/><use xlink:href="#38" y="43.42"/><use xlink:href="#45" y="49.933"/></svg><svg x="6880"><use xlink:href="#a"/><use xlink:href="#34" y="2.171"/><use xlink:href="#35" y="6.513"/><use xlink:href="#36" y="8.684"/><use xlink:href="#37" y="13.026"/><use xlink:href="#38" y="15.197"/><use xlink:href="#39" y="19.539"/><use xlink:href="#40" y="21.71"/><use xlink:href="#41" y="26.052"/><use xlink:href="#38" y="28.223"/><use xlink:href="#42" y="32.565"/><use xlink:href="#38" y="34.736"/><use xlink:href="#43" y="39.078"/><use xlink:href="#38" y="41.249"/><use xlink:href="#45" y="47.762"/></svg><svg x="6960"><use xlink:href="#a"/><use xlink:href="#38"/><use xlink:href="#39" y="4.342"/><use xlink:href="#40" y="6.513"/><use xlink:href="#41" y="10.855"/><use xlink:href="#38" y="13.026"/><use xlink:href="#42" y="17.368"/><use xlink:href="#38" y="19.539"/><use xlink:href="#43" y="23.881"/><use xlink:href="#38" y="26.052"/><use xlink:href="#45" y="32.565"/><use xlink:href="#46" y="36.907"/><use xlink:href="#47" y="41.249"/><use xlink:href="#48" y="43.42"/><use xlink:href="#49" y="47.762"/></svg><svg x="7040"><use xlink:href="#a"/><use xlink:href="#39"/><use xlink:href="#40" y="2.171"/><use xlink:href="#41" y="6.513"/><use xlink:href="#38" y="8.684"/><use xlink:href="#42" y="13.026"/><use xlink:href="#38" y="15.197"/><use xlink:href="#43" y="19.539"/><use xlink:href="#38" y="21.71"/><use xlink:href="#45" y="28.223"/><use xlink:href="#46" y="32.565"/><use xlink:href="#47" y="36.907"/><use xlink:href="#48" y="39.078"/><use xlink:href="#49" y="43.42"/><text x="2.004" y="49.432" class="n">✓</text><text x="4.008" y="49.432" class="n">Done!</text><text x="10.02" y="49.432" class="f">Ran:</text><text x="15.03" y="49.432" class="f">git</text><text x="19.038" y="49.432" class="f">checkout</text><text x="28.056" y="49.432" class="f">feature-branch</text></svg></svg></g></g></svg></svg>